<?xml version="1.0" encoding="utf-8"?>
<!-- Generator: Adobe Illustrator 22.1.0, SVG Export Plug-In . SVG Version: 6.00 Build 0)  -->
<svg version="1.1" id="Layer_1" xmlns="http://www.w3.org/2000/svg" xmlns:xlink="http://www.w3.org/1999/xlink" x="0px" y="0px"
	 viewBox="0 0 53 14.4" style="enable-background:new 0 0 53 14.4;" xml:space="preserve">
<style type="text/css">
	.st0{fill:url(#SVGID_1_);}
	.st1{fill:url(#SVGID_2_);}
	.st2{fill:url(#SVGID_3_);}
	.st3{fill:url(#SVGID_4_);}
</style>
<g>
	<g>
		<path d="M12.6,14.4H9.5V8.2H3.9v6.2H0.8V0h3.1v5.7h5.7V0h3.1L12.6,14.4L12.6,14.4z"/>
		<path d="M21.8,14.4h-3.1V2.5h-3.8V0h10.9v2.5h-3.9v11.9H21.8z"/>
		<path d="M39.6,14.4h-3.5l-3.8-6.1L31,9.2v5.2h-3.1V0H31v6.6l1.2-1.7l4-4.9h3.4l-5,6.4L39.6,14.4z"/>
		<path d="M53,14.4h-3.5l-3.8-6.1l-1.3,0.9v5.2h-3.1V0h3.1v6.6l1.2-1.7l4-4.9H53l-5,6.4L53,14.4z"/>
	</g>
	<g>
		
			<linearGradient id="SVGID_1_" gradientUnits="userSpaceOnUse" x1="-0.1889" y1="730.4467" x2="53.0987" y2="730.4467" gradientTransform="matrix(1 0 0 1 0 -723.2467)">
			<stop  offset="0" style="stop-color:#157EAE"/>
			<stop  offset="1" style="stop-color:#1595ED"/>
		</linearGradient>
		<path class="st0" d="M11.9,14.4H8.8V8.2H3.1v6.2H0V0h3.1v5.7h5.7V0h3.1V14.4z"/>
		
			<linearGradient id="SVGID_2_" gradientUnits="userSpaceOnUse" x1="-0.1889" y1="730.4467" x2="53.0987" y2="730.4467" gradientTransform="matrix(1 0 0 1 0 -723.2467)">
			<stop  offset="0" style="stop-color:#157EAE"/>
			<stop  offset="1" style="stop-color:#1595ED"/>
		</linearGradient>
		<path class="st1" d="M21.1,14.4H18V2.5h-3.9V0H25v2.5h-3.9V14.4z"/>
		
			<linearGradient id="SVGID_3_" gradientUnits="userSpaceOnUse" x1="-0.1889" y1="730.4467" x2="53.0987" y2="730.4467" gradientTransform="matrix(1 0 0 1 0 -723.2467)">
			<stop  offset="0" style="stop-color:#157EAE"/>
			<stop  offset="1" style="stop-color:#1595ED"/>
		</linearGradient>
		<path class="st2" d="M38.8,14.4h-3.5l-3.8-6.1l-1.3,0.9v5.2h-3.1V0h3.1v6.6l1.2-1.7l4-4.9h3.4l-5,6.4L38.8,14.4z"/>
		
			<linearGradient id="SVGID_4_" gradientUnits="userSpaceOnUse" x1="-0.1889" y1="730.4467" x2="53.0987" y2="730.4467" gradientTransform="matrix(1 0 0 1 0 -723.2467)">
			<stop  offset="0" style="stop-color:#157EAE"/>
			<stop  offset="1" style="stop-color:#1595ED"/>
		</linearGradient>
		<path class="st3" d="M52.3,14.4h-3.5L45,8.3l-1.3,0.9v5.2h-3.1V0h3.1v6.6l1.2-1.7L48.8,0h3.4l-5,6.4L52.3,14.4z"/>
	</g>
</g>
</svg>
