<?xml version="1.0" encoding="utf-8"?>
<!-- Generator: Adobe Illustrator 22.1.0, SVG Export Plug-In . SVG Version: 6.00 Build 0)  -->
<svg version="1.1" id="Layer_1" xmlns="http://www.w3.org/2000/svg" xmlns:xlink="http://www.w3.org/1999/xlink" x="0px" y="0px"
	 viewBox="0 0 400 300" style="enable-background:new 0 0 400 300;" xml:space="preserve">
<style type="text/css">
	.st0{fill:#0E83C4;}
	.st1{clip-path:url(#SVGID_2_);fill:url(#SVGID_3_);}
	.st2{fill:none;stroke:#DDD54A;stroke-width:0.4837;stroke-miterlimit:10;}
	.st3{fill:url(#SVGID_4_);}
	.st4{fill:url(#SVGID_5_);}
	.st5{fill:url(#SVGID_6_);}
	.st6{fill:url(#SVGID_7_);}
	.st7{fill:url(#SVGID_8_);}
	.st8{fill:url(#SVGID_9_);}
	.st9{fill:url(#SVGID_10_);}
</style>
<g>
	<polygon class="st0" points="65.5,123.8 78.1,74.5 92.1,74.5 81,118 113.9,163 101.3,173.2 	"/>
	<g>
		<defs>
			<polygon id="SVGID_1_" points="71.1,144.4 95.2,177.3 -3.9,177.3 -3.9,20.3 175.3,20.3 175.3,177.5 133.7,177.5 96,126.2 			"/>
		</defs>
		<clipPath id="SVGID_2_">
			<use xlink:href="#SVGID_1_"  style="overflow:visible;"/>
		</clipPath>
		<linearGradient id="SVGID_3_" gradientUnits="userSpaceOnUse" x1="2.9287" y1="109.9165" x2="138.3163" y2="109.9165">
			<stop  offset="0" style="stop-color:#109BF8"/>
			<stop  offset="1" style="stop-color:#0E83C4"/>
		</linearGradient>
		<path class="st1" d="M130.6,68.3c-17.3-25-58.2-26.6-91.3-3.6c-33.1,23-45.9,61.8-28.6,86.8s58.2,26.6,91.3,3.6
			C135.1,132.2,147.9,93.3,130.6,68.3z M93,142c-23.8,16.1-52.9,14.7-65-3.2s-2.6-45.4,21.2-61.5c23.8-16.1,52.9-14.7,65,3.2
			S116.8,125.9,93,142z"/>
	</g>
	<path class="st2" d="M111.5,148"/>
	<path class="st2" d="M102.7,135.9"/>
	<g>
		<linearGradient id="SVGID_4_" gradientUnits="userSpaceOnUse" x1="149" y1="118.5962" x2="405" y2="118.5962">
			<stop  offset="0" style="stop-color:#109BF8"/>
			<stop  offset="1" style="stop-color:#0E83C4"/>
		</linearGradient>
		<path class="st3" d="M149.3,144.4l6.7-38.2h10l-6.7,38.2H149.3z M156.7,101.8l1.6-9h10l-1.5,9H156.7z"/>
		<linearGradient id="SVGID_5_" gradientUnits="userSpaceOnUse" x1="149" y1="124.6671" x2="405" y2="124.6671">
			<stop  offset="0" style="stop-color:#109BF8"/>
			<stop  offset="1" style="stop-color:#0E83C4"/>
		</linearGradient>
		<path class="st4" d="M170,144.4l6.7-38.2h9.2l-1.1,5.9c3.9-4.7,8.2-7.1,13-7.1c3.3,0,6,0.9,8,2.7c2.1,1.9,3.1,4.5,3.1,7.8
			c0,1.4-0.1,2.9-0.4,4.4l-4.4,24.5h-10.1l4.2-24.2c0.2-1.1,0.3-1.9,0.3-2.5c0-2.9-1.6-4.3-4.8-4.3c-2.8,0-5.1,1.1-7,3.2
			c-1.6,1.9-2.7,4.3-3.2,7.2l-3.6,20.6H170z"/>
		<linearGradient id="SVGID_6_" gradientUnits="userSpaceOnUse" x1="149" y1="125.2619" x2="405" y2="125.2619">
			<stop  offset="0" style="stop-color:#109BF8"/>
			<stop  offset="1" style="stop-color:#0E83C4"/>
		</linearGradient>
		<path class="st5" d="M221.6,144.4l-5.4-38.2h10l2.6,26.3l12-26.3h10.5l-18.8,38.2H221.6z"/>
		<linearGradient id="SVGID_7_" gradientUnits="userSpaceOnUse" x1="149" y1="125.2798" x2="405" y2="125.2798">
			<stop  offset="0" style="stop-color:#109BF8"/>
			<stop  offset="1" style="stop-color:#0E83C4"/>
		</linearGradient>
		<path class="st6" d="M252.4,128c0-6.6,2-12,5.9-16.3c4.1-4.4,9.4-6.6,16-6.6c5.5,0,9.8,1.6,12.9,4.7c3.1,3.1,4.6,7.4,4.6,12.9
			c0,6.6-1.9,12-5.8,16.2c-4,4.4-9.3,6.6-15.8,6.6c-5.4,0-9.8-1.6-13-4.7C254,137.6,252.4,133.4,252.4,128z M273.7,113.3
			c-3.5,0-6.3,1.7-8.4,5c-1.8,2.9-2.8,6.2-2.8,9.9c0,2.7,0.7,4.9,2,6.4c1.4,1.7,3.4,2.6,6.1,2.6c3.5,0,6.3-1.6,8.4-4.9
			c1.8-2.8,2.7-6.1,2.7-9.8c0-2.7-0.6-4.9-1.9-6.5C278.3,114.2,276.3,113.3,273.7,113.3z"/>
		<linearGradient id="SVGID_8_" gradientUnits="userSpaceOnUse" x1="149" y1="118.5962" x2="405" y2="118.5962">
			<stop  offset="0" style="stop-color:#109BF8"/>
			<stop  offset="1" style="stop-color:#0E83C4"/>
		</linearGradient>
		<path class="st7" d="M297.3,144.4l6.7-38.2h10l-6.7,38.2H297.3z M304.8,101.8l1.6-9h10l-1.5,9H304.8z"/>
		<linearGradient id="SVGID_9_" gradientUnits="userSpaceOnUse" x1="149" y1="125.2798" x2="405" y2="125.2798">
			<stop  offset="0" style="stop-color:#109BF8"/>
			<stop  offset="1" style="stop-color:#0E83C4"/>
		</linearGradient>
		<path class="st8" d="M345,130.7h10.1c-0.9,4.8-2.9,8.4-6.1,11c-3.2,2.5-7.2,3.8-12.1,3.8c-5.6,0-10-1.6-12.9-4.9
			c-2.9-3.1-4.3-7.6-4.3-13.3c0-6.4,1.7-11.6,5.1-15.7c3.6-4.4,8.6-6.5,14.8-6.5c4.9,0,8.8,1.2,11.5,3.5c3,2.5,4.6,6.1,4.7,10.9
			h-10.1c-0.1-4.1-2.2-6.2-6.3-6.2c-3.4,0-5.9,1.7-7.7,5.2c-1.4,2.7-2.1,5.9-2.1,9.7c0,5.9,2.5,8.9,7.5,8.9
			C341.3,137.1,343.8,134.9,345,130.7z"/>
		<linearGradient id="SVGID_10_" gradientUnits="userSpaceOnUse" x1="149" y1="125.3498" x2="405" y2="125.3498">
			<stop  offset="0" style="stop-color:#109BF8"/>
			<stop  offset="1" style="stop-color:#0E83C4"/>
		</linearGradient>
		<path class="st9" d="M386.5,133.4h11c-1.1,4-3.4,7.1-7,9.2c-3.2,1.9-7,2.9-11.4,2.9c-5.4,0-9.6-1.7-12.5-5
			c-2.7-3.2-4.1-7.5-4.1-13c0-6.2,1.7-11.4,5.1-15.6c3.7-4.5,8.5-6.7,14.6-6.7c5.2,0,9.4,1.5,12.3,4.4c3,3,4.4,7.1,4.4,12.3
			c0,1.4-0.2,3.6-0.6,6.6h-25.9v0.2c0,5.6,2.4,8.4,7.1,8.4C382.7,137.3,385,136,386.5,133.4z M373.4,121.5h15.4c0-0.1,0-0.4,0-0.6
			c0-0.3,0-0.5,0-0.6c0-4.8-2.2-7.2-6.7-7.2C377.5,113.1,374.5,115.9,373.4,121.5z"/>
	</g>
</g>
</svg>
